<svg xmlns="http://www.w3.org/2000/svg" xmlns:xlink="http://www.w3.org/1999/xlink" height="21.000001248270905" width="21">
  <g opacity="1">
    <path fill="rgb(255,255,255)" fill-opacity="1" opacity="1" fill-rule="evenodd" d="M3.9375 0L3.9375 11.222362518310547C5.4351806640625 11.526456832885742 6.5625 12.850095748901367 6.5625 14.437488555908203C6.5625 16.02488136291504 5.4351806640625 17.348520278930664 3.9375 17.65261459350586L3.9375 21L2.625 21L2.625 17.65261459350586C1.1273193359375 17.348520278930664 0 16.02488136291504 0 14.437488555908203C0 12.850095748901367 1.1273193359375 11.526456832885742 2.625 11.222362518310547L2.625 0L3.9375 0ZM11.15625 3.3473472595214844L11.15625 0L9.84375 0L9.84375 3.3473472595214844C8.3460693359375 3.6514415740966797 7.21875 4.975080490112305 7.21875 6.562473297119141C7.21875 8.149866104125977 8.3460693359375 9.473506927490234 9.84375 9.777599334716797L9.84375 21L11.15625 21L11.15625 9.777599334716797C12.6539306640625 9.473506927490234 13.78125 8.149866104125977 13.78125 6.562473297119141C13.78125 4.975080490112305 12.6539306640625 3.6514415740966797 11.15625 3.3473472595214844ZM18.375 11.222362518310547L18.375 0L17.0625 0L17.0625 11.222362518310547C15.5648193359375 11.526456832885742 14.4375 12.850095748901367 14.4375 14.437488555908203C14.4375 16.02488136291504 15.5648193359375 17.348520278930664 17.0625 17.65261459350586L17.0625 21L18.375 21L18.375 17.65261459350586C19.8726806640625 17.348520278930664 21 16.02488136291504 21 14.437488555908203C21 12.850095748901367 19.8726806640625 11.526456832885742 18.375 11.222362518310547ZM8.53125 6.562473297119141C8.53125 7.649789810180664 9.412689208984375 8.531227111816406 10.5 8.531227111816406C11.587310791015625 8.531227111816406 12.46875 7.649789810180664 12.46875 6.562473297119141C12.46875 5.475156784057617 11.587310791015625 4.593719482421875 10.5 4.593719482421875C9.412689208984375 4.593719482421875 8.53125 5.475156784057617 8.53125 6.562473297119141ZM1.3125 14.437488555908203C1.3125 15.524805068969727 2.193939208984375 16.40624237060547 3.28125 16.40624237060547C4.368560791015625 16.40624237060547 5.25 15.524805068969727 5.25 14.437488555908203C5.25 13.35017204284668 4.368560791015625 12.468734741210938 3.28125 12.468734741210938C2.193939208984375 12.468734741210938 1.3125 13.35017204284668 1.3125 14.437488555908203ZM15.75 14.437488555908203C15.75 15.524805068969727 16.631439208984375 16.40624237060547 17.71875 16.40624237060547C18.806060791015625 16.40624237060547 19.6875 15.524805068969727 19.6875 14.437488555908203C19.6875 13.35017204284668 18.806060791015625 12.468734741210938 17.71875 12.468734741210938C16.631439208984375 12.468734741210938 15.75 13.35017204284668 15.75 14.437488555908203Z"/>
  </g>
</svg>